<svg width="18" height="21" viewBox="0 0 18 21" fill="none" xmlns="http://www.w3.org/2000/svg">
<path d="M0.193359 3.9043C0.193359 3.41211 0.339844 3.02539 0.632812 2.74414C0.931641 2.46289 1.33301 2.32227 1.83691 2.32227H3.50684C3.60059 1.86523 3.81152 1.51074 4.13965 1.25879C4.47363 1.00098 4.91309 0.87207 5.45801 0.87207H12.5332C13.084 0.87207 13.5234 1.00098 13.8516 1.25879C14.1797 1.51074 14.3906 1.86523 14.4844 2.32227H16.1543C16.6582 2.32227 17.0566 2.46289 17.3496 2.74414C17.6484 3.02539 17.7979 3.41211 17.7979 3.9043C17.7979 5.09375 17.6016 6.14551 17.209 7.05957C16.8164 7.96777 16.2275 8.74121 15.4424 9.37988C14.6631 10.0127 13.6904 10.5107 12.5244 10.874C12.2432 11.2256 11.9473 11.542 11.6367 11.8232C11.3262 12.1045 11.0156 12.3447 10.7051 12.5439V16.1914H12.0762C12.709 16.1914 13.1924 16.3672 13.5264 16.7188C13.8604 17.0645 14.0273 17.5391 14.0273 18.1426V19.6367C14.0273 19.8711 13.9482 20.0615 13.79 20.208C13.6318 20.3545 13.4414 20.4277 13.2188 20.4277H4.76367C4.54688 20.4277 4.35938 20.3545 4.20117 20.208C4.04297 20.0615 3.96387 19.8711 3.96387 19.6367V18.1426C3.96387 17.5391 4.13086 17.0645 4.46484 16.7188C4.79883 16.3672 5.2793 16.1914 5.90625 16.1914H7.28613V12.5439C6.97559 12.3447 6.66504 12.1045 6.35449 11.8232C6.04395 11.542 5.74512 11.2256 5.45801 10.874C4.29199 10.5107 3.31934 10.0127 2.54004 9.37988C1.76074 8.74121 1.1748 7.96777 0.782227 7.05957C0.389648 6.14551 0.193359 5.09375 0.193359 3.9043ZM1.66113 4.10645C1.66113 5.23145 1.87793 6.18945 2.31152 6.98047C2.74512 7.77148 3.38086 8.38965 4.21875 8.83496C3.97852 8.33691 3.78809 7.80664 3.64746 7.24414C3.50684 6.68164 3.43652 6.0957 3.43652 5.48633V3.86035H1.90723C1.83691 3.86035 1.77832 3.88672 1.73145 3.93945C1.68457 3.98633 1.66113 4.04199 1.66113 4.10645ZM13.7725 8.83496C14.6104 8.38965 15.2461 7.77148 15.6797 6.98047C16.1133 6.18945 16.3301 5.23145 16.3301 4.10645C16.3301 4.04199 16.3066 3.98633 16.2598 3.93945C16.2129 3.88672 16.1543 3.86035 16.084 3.86035H14.5547V5.48633C14.5547 6.0957 14.4814 6.68164 14.335 7.24414C14.1943 7.80664 14.0068 8.33691 13.7725 8.83496Z" fill="#0A77FF"/>
</svg>
