<svg width="36" height="36" viewBox="0 0 36 36" fill="none" xmlns="http://www.w3.org/2000/svg">
<rect width="36" height="36" rx="8" fill="white"/>
<path d="M12.4033 24.8076C12.1169 24.8076 11.877 24.7074 11.6836 24.5068C11.4902 24.3063 11.3936 24.0664 11.3936 23.7871C11.3936 23.5078 11.4902 23.2679 11.6836 23.0674C11.877 22.8669 12.1169 22.7666 12.4033 22.7666H23.6396C23.9261 22.7666 24.166 22.8669 24.3594 23.0674C24.5599 23.2679 24.6602 23.5078 24.6602 23.7871C24.6602 24.0736 24.5599 24.3171 24.3594 24.5176C24.166 24.7109 23.9261 24.8076 23.6396 24.8076H12.4033ZM10.2227 19.2646C9.94336 19.2646 9.70345 19.1644 9.50293 18.9639C9.30957 18.7633 9.21289 18.5234 9.21289 18.2441C9.21289 17.9577 9.30957 17.7178 9.50293 17.5244C9.69629 17.3239 9.9362 17.2236 10.2227 17.2236H25.8311C26.1032 17.2236 26.3359 17.3239 26.5293 17.5244C26.7298 17.7178 26.8301 17.9577 26.8301 18.2441C26.8301 18.5234 26.7298 18.7633 26.5293 18.9639C26.3359 19.1644 26.1032 19.2646 25.8311 19.2646H10.2227ZM7.99902 13.7109C7.71973 13.7109 7.47982 13.6107 7.2793 13.4102C7.08594 13.2096 6.98926 12.9733 6.98926 12.7012C6.98926 12.4147 7.08594 12.1712 7.2793 11.9707C7.47982 11.7702 7.71973 11.6699 7.99902 11.6699H28.001C28.2874 11.6699 28.5273 11.7702 28.7207 11.9707C28.9141 12.1712 29.0107 12.4147 29.0107 12.7012C29.0107 12.9805 28.9141 13.2204 28.7207 13.4209C28.5273 13.6143 28.2874 13.7109 28.001 13.7109H7.99902Z" fill="#0A77FF"/>
</svg>
