<svg width="19" height="19" viewBox="0 0 19 19" fill="none" xmlns="http://www.w3.org/2000/svg">
<path d="M5.30273 10.7529H9.73242C9.93164 10.7529 10.0986 10.6855 10.2334 10.5508C10.3682 10.416 10.4355 10.249 10.4355 10.0498V4.29297C10.4355 4.09961 10.3682 3.93555 10.2334 3.80078C10.0986 3.66602 9.93164 3.59863 9.73242 3.59863C9.53906 3.59863 9.375 3.66602 9.24023 3.80078C9.10547 3.93555 9.03809 4.09961 9.03809 4.29297V9.35547H5.30273C5.10352 9.35547 4.93652 9.42285 4.80176 9.55762C4.66699 9.68652 4.59961 9.85059 4.59961 10.0498C4.59961 10.249 4.66699 10.416 4.80176 10.5508C4.93652 10.6855 5.10352 10.7529 5.30273 10.7529ZM9.74121 18.7334C8.49902 18.7334 7.33008 18.4961 6.23438 18.0215C5.13867 17.5527 4.17188 16.8994 3.33398 16.0615C2.50195 15.2236 1.84863 14.2568 1.37402 13.1611C0.899414 12.0654 0.662109 10.8965 0.662109 9.6543C0.662109 8.41211 0.899414 7.24316 1.37402 6.14746C1.84863 5.05176 2.50195 4.08789 3.33398 3.25586C4.17188 2.41797 5.13574 1.76172 6.22559 1.28711C7.32129 0.8125 8.49023 0.575195 9.73242 0.575195C10.9805 0.575195 12.1523 0.8125 13.248 1.28711C14.3438 1.76172 15.3105 2.41797 16.1484 3.25586C16.9863 4.08789 17.6426 5.05176 18.1172 6.14746C18.5918 7.24316 18.8291 8.41211 18.8291 9.6543C18.8291 10.8965 18.5918 12.0654 18.1172 13.1611C17.6426 14.2568 16.9863 15.2236 16.1484 16.0615C15.3105 16.8994 14.3438 17.5527 13.248 18.0215C12.1523 18.4961 10.9834 18.7334 9.74121 18.7334Z" fill="#0A77FF"/>
</svg>
