<svg width="36" height="36" viewBox="0 0 36 36" fill="none" xmlns="http://www.w3.org/2000/svg">
<rect width="36" height="36" rx="8" fill="white"/>
<path d="M9.00879 18.2441C9.00879 17.9147 9.12695 17.6318 9.36328 17.3955C9.59961 17.152 9.88249 17.0303 10.2119 17.0303H16.7969V10.4561C16.7969 10.1266 16.915 9.84375 17.1514 9.60742C17.3877 9.37109 17.6706 9.25293 18 9.25293C18.3366 9.25293 18.623 9.37109 18.8594 9.60742C19.0957 9.84375 19.2139 10.1266 19.2139 10.4561V17.0303H25.7881C26.1175 17.0303 26.4004 17.152 26.6367 17.3955C26.873 17.6318 26.9912 17.9147 26.9912 18.2441C26.9912 18.5807 26.873 18.8672 26.6367 19.1035C26.4004 19.3327 26.1175 19.4473 25.7881 19.4473H19.2139V26.043C19.2139 26.3652 19.0957 26.6445 18.8594 26.8809C18.623 27.1172 18.3366 27.2354 18 27.2354C17.6706 27.2354 17.3877 27.1172 17.1514 26.8809C16.915 26.6445 16.7969 26.3652 16.7969 26.043V19.4473H10.2119C9.88249 19.4473 9.59961 19.3327 9.36328 19.1035C9.12695 18.8672 9.00879 18.5807 9.00879 18.2441Z" fill="#0A77FF"/>
</svg>
