<svg width="21" height="20" viewBox="0 0 21 20" fill="none" xmlns="http://www.w3.org/2000/svg">
<path d="M4.15039 19.2676C3.94531 19.1152 3.81934 18.9102 3.77246 18.6523C3.73145 18.4004 3.76953 18.1016 3.88672 17.7559L5.69727 12.3857L1.08301 9.07227C0.78418 8.86133 0.576172 8.6416 0.458984 8.41309C0.341797 8.17871 0.324219 7.93848 0.40625 7.69238C0.488281 7.45215 0.643555 7.27344 0.87207 7.15625C1.10059 7.0332 1.39941 6.97461 1.76855 6.98047L7.41992 7.01562L9.14258 1.61914C9.25391 1.26758 9.40039 1.00098 9.58203 0.819336C9.76953 0.631836 9.98926 0.538086 10.2412 0.538086C10.499 0.538086 10.7188 0.631836 10.9004 0.819336C11.0879 1.00098 11.2373 1.26758 11.3486 1.61914L13.0713 7.01562L18.7227 6.98047C19.0918 6.97461 19.3906 7.0332 19.6191 7.15625C19.8477 7.27344 20.0029 7.45215 20.085 7.69238C20.167 7.93848 20.1494 8.17871 20.0322 8.41309C19.915 8.6416 19.707 8.86133 19.4082 9.07227L14.7939 12.3857L16.6045 17.7559C16.7217 18.1016 16.7568 18.4004 16.71 18.6523C16.6689 18.9102 16.5459 19.1152 16.3408 19.2676C16.1357 19.4316 15.9043 19.4902 15.6465 19.4434C15.3887 19.3965 15.1133 19.2676 14.8203 19.0566L10.2412 15.6904L5.6709 19.0566C5.37793 19.2676 5.10254 19.3965 4.84473 19.4434C4.58691 19.4902 4.35547 19.4316 4.15039 19.2676Z" fill="#0A77FF"/>
</svg>
